Coordinates
version=1
nRows=16
nColumns=42
inDegrees=yes

Units are S.I. units (second, meters, Newtons, ...)
If the header above contains a line with 'inDegrees', this indicates whether rotational values are in degrees (yes) or radians (no).

endheader
time	pelvis_tilt	pelvis_list	pelvis_rotation	pelvis_tx	pelvis_ty	pelvis_tz	hip_flexion_r	hip_adduction_r	hip_rotation_r	knee_angle_r	knee_adduction_r	knee_angle_r_beta	ankle_angle_r	subtalar_angle_r	mtp_angle_r	hip_flexion_l	hip_adduction_l	hip_rotation_l	knee_angle_l	knee_adduction_l	knee_angle_l_beta	ankle_angle_l	subtalar_angle_l	mtp_angle_l	lumbar_extension	lumbar_bending	lumbar_rotation	arm_flex_r	arm_add_r	arm_rot_r	elbow_flex_r	pro_sup_r	wrist_flex_r	wrist_dev_r	arm_flex_l	arm_add_l	arm_rot_l	elbow_flex_l	pro_sup_l	wrist_flex_l	wrist_dev_l
      0.13000000	      2.93374728	     -0.67408991	    -10.80516807	     -1.19438227	      0.97998453	     -0.24209015	    -20.21609738	     -3.69732854	      7.23413923	     19.42218974	      8.49014053	      0.33898116	     11.48699794	      3.11750715	     -9.05670000	     21.33477638	    -10.77340661	    -12.34412693	     10.65987121	     12.12584088	      0.18604985	     -5.08688854	     -8.05785848	     -9.05670000	    -16.41367639	     -5.14153395	     12.79899159	     21.56846821	    -19.43937048	      1.06445407	     41.75281363	     90.00000001	      0.00000000	      0.00000000	    -14.84036887	     -8.66510056	    -22.82577629	     11.95803190	     90.00000001	      0.00000000	      0.00000000
      0.14000000	      3.10629477	      0.00936805	    -10.79197584	     -1.17815185	      0.98018283	     -0.24313765	    -20.23020564	     -4.61330263	      7.07279574	     21.12113357	      8.48484103	      0.36863332	      9.80863706	      2.71835772	     -9.03145949	     21.19670392	     -9.90337890	    -12.02519030	     11.96898554	     12.09744600	      0.20889821	     -6.22412151	     -8.08161893	     -9.03145949	    -16.29948375	     -5.97528884	     12.47684051	     21.00476900	    -19.21191003	      1.00936343	     41.78705400	     90.00000001	      0.00000000	      0.00000000	    -14.74216344	     -8.69848891	    -22.78327731	     12.00131639	     90.00000001	      0.00000000	      0.00000000
      0.15000000	      3.26617142	      0.66150753	    -10.70134083	     -1.16192693	      0.98080436	     -0.24426328	    -20.05318656	     -5.46364279	      6.93250728	     23.08353839	      8.54709378	      0.40288375	      7.90319215	      2.23872485	     -9.00918252	     21.04626064	     -9.05884876	    -11.48114265	     13.26904505	     12.13309200	      0.23158852	     -7.14818470	     -8.21011756	     -9.00918252	    -16.19856049	     -6.75788679	     12.11395577	     20.34511006	    -18.97062541	      0.88018334	     41.78410069	     90.00000001	      0.00000000	      0.00000000	    -14.51951435	     -8.76416207	    -22.73902880	     12.04684469	     90.00000001	      0.00000000	      0.00000000
      0.16000000	      3.29068691	      1.37860944	    -10.49418796	     -1.14578522	      0.98180876	     -0.24549840	    -19.48084271	     -6.26962872	      6.80897425	     25.39746678	      8.62733009	      0.44326942	      5.07270362	      0.44189136	     -8.90959874	     20.95385521	     -8.07822035	    -10.34567543	     14.27978087	     12.23883031	      0.24922919	     -8.56574023	     -9.99557377	     -8.90959874	    -15.95640252	     -7.56746565	     11.75743337	     19.40911130	    -18.52827618	     -0.01660542	     41.85886618	     90.00000001	      0.00000000	      0.00000000	    -13.84759563	     -8.92458776	    -23.00339449	     11.37978853	     90.00000001	      0.00000000	      0.00000000
      0.17000000	      3.53504725	      2.04734054	    -10.22700998	     -1.12974623	      0.98330871	     -0.24702809	    -18.89457092	     -7.14251638	      6.44139473	     28.05527958	      8.79711857	      0.48965700	      2.33819117	      0.05233765	     -8.88729403	     20.67620459	     -7.09367985	     -9.67648794	     15.53760693	     12.28936431	      0.27118240	     -8.62756040	    -10.07668472	     -8.88729403	    -16.01616780	     -8.29988274	     11.15574685	     18.74718159	    -18.29719109	     -0.06430497	     41.69467327	     90.00000001	      0.00000000	      0.00000000	    -13.52052521	     -8.92899347	    -23.01254855	     11.68074608	     90.00000001	      0.00000000	      0.00000000
      0.18000000	      3.62959787	      2.71544011	     -9.84668208	     -1.11386921	      0.98507305	     -0.24857283	    -17.85664924	     -7.87894200	      5.74260260	     31.13684337	      8.69702978	      0.54344044	     -1.34472838	     -1.38603221	     -8.83759045	     20.51692463	     -6.00900862	     -8.78550284	     16.68472112	     12.22927556	      0.29120332	     -8.96674998	    -10.84624834	     -8.83759045	    -15.92584906	     -8.99652539	     10.52827602	     17.89059012	    -17.81764771	     -0.50703630	     41.37168989	     90.00000001	      0.00000000	      0.00000000	    -12.93794721	     -9.09199530	    -23.16974761	     11.49734473	     90.00000001	      0.00000000	      0.00000000
      0.19000000	      3.86206852	      3.40210386	     -9.54329020	     -1.09813910	      0.98724200	     -0.25035383	    -16.76221986	     -8.79524836	      5.42705088	     34.33255076	      8.84542465	      0.59921605	     -5.07912404	     -2.04484752	     -8.82209249	     20.03930098	     -4.82937255	     -7.97352696	     17.56869983	     12.16450282	      0.30663166	     -8.39865657	    -11.38769136	     -8.82209249	    -15.99513521	     -9.68562709	      9.93270503	     17.06725230	    -17.45579781	     -0.68252869	     41.05020882	     90.00000001	      0.00000000	      0.00000000	    -12.35802810	     -9.14732001	    -23.27792674	     11.57621771	     90.00000001	      0.00000000	      0.00000000
      0.20000000	      4.03553480	      3.87242840	     -9.04660850	     -1.08282884	      0.98974028	     -0.25213494	    -15.51662460	     -9.35635445	      5.50452973	     37.52353226	      9.15655460	      0.65490918	     -9.72211234	     -4.88823604	     -8.73227136	     19.50330234	     -3.81286877	     -6.72156536	     18.19170630	     12.19824860	      0.31750517	     -8.39491050	    -12.57653860	     -8.73227136	    -16.13184709	    -10.10142408	      9.22109995	     16.34287779	    -16.87159645	     -1.64503476	     40.43029058	     90.00000001	      0.00000000	      0.00000000	    -11.40588136	     -9.24840757	    -24.24359113	     11.29481802	     90.00000001	      0.00000000	      0.00000000
      0.21000000	      4.26302790	      4.37365567	     -8.64820707	     -1.06776842	      0.99226909	     -0.25404511	    -14.04135379	    -10.03536717	      5.06874945	     41.02721909	      9.04923408	      0.71606006	    -13.72059545	     -5.57587014	     -8.69760947	     18.83746299	     -2.73371764	     -6.11307883	     18.78992996	     12.02048443	      0.32794614	     -7.71616930	    -12.77958094	     -8.69760947	    -16.33145317	    -10.51180625	      8.50899657	     15.55779049	    -16.51940656	     -1.75004057	     40.01914230	     90.00000001	      0.00000000	      0.00000000	    -10.64400458	     -9.28500280	    -24.56961154	     11.41243966	     90.00000001	      0.00000000	      0.00000000
      0.22000000	      4.46067656	      4.72207301	     -8.27738304	     -1.05304429	      0.99496161	     -0.25582186	    -12.46678131	    -10.53180834	      5.26611655	     44.39820894	      9.21803617	      0.77489493	    -17.80824114	     -7.21308977	     -8.60760881	     18.06322013	     -1.82610177	     -5.67892032	     19.19713353	     11.78404877	      0.33505319	     -6.85995969	    -12.79382653	     -8.60760881	    -16.54558423	    -10.75036221	      7.86280908	     14.89946194	    -16.06562300	     -2.19195486	     39.33119717	     90.00000001	      0.00000000	      0.00000000	     -9.61436872	     -9.34092992	    -25.52843935	     11.38724849	     90.00000001	      0.00000000	      0.00000000
      0.23000000	      4.72645882	      4.98587367	     -8.07492152	     -1.03861072	      0.99762719	     -0.25754039	    -10.78514297	    -10.98864449	      5.47636810	     47.84799793	      9.17854483	      0.83510510	    -20.48368585	     -6.92629692	     -8.58887446	     17.08747577	     -1.09180662	     -5.53982705	     19.45746937	     11.64147102	      0.33959690	     -5.82510353	    -12.52043184	     -8.58887446	    -16.84972870	    -10.89583958	      7.32333320	     14.12942787	    -15.84597822	     -2.18094581	     38.97943157	     90.00000001	      0.00000000	      0.00000000	     -8.93250474	     -9.22624123	    -25.49736275	     11.87071955	     90.00000001	      0.00000000	      0.00000000
      0.24000000	      4.80977590	      5.21547988	     -7.72957254	     -1.02434053	      1.00012655	     -0.25911321	     -8.82836543	    -11.31992235	      4.97367484	     51.25710057	      8.64758768	      0.89460517	    -23.64445525	     -7.86095130	     -8.56024767	     16.26917310	     -0.33628270	     -5.38991515	     19.64247139	     11.28035007	      0.34282580	     -4.94602678	    -12.15494160	     -8.56024767	    -16.95604295	    -10.97070570	      6.71220618	     13.35617530	    -15.45200007	     -2.24664616	     38.22767991	     90.00000001	      0.00000000	      0.00000000	     -8.03218192	     -9.29656852	    -25.57612434	     12.06699902	     90.00000001	      0.00000000	      0.00000000
      0.25000000	      4.96667331	      5.14012125	     -7.59861305	     -1.01035282	      1.00273121	     -0.26019492	     -6.94644363	    -11.28846510	      5.43156277	     54.37535647	      8.58746770	      0.94902900	    -25.99299178	     -9.61084459	     -8.50184575	     15.21032992	     -0.10335399	     -5.54076875	     19.68893977	     11.15656524	      0.34363683	     -3.87442074	    -11.49893529	     -8.50184575	    -17.15061666	    -10.77436175	      6.32892653	     12.86289910	    -14.99746590	     -2.54320427	     37.02891755	     90.00000001	      0.00000000	      0.00000000	     -7.00770405	     -9.26532805	    -26.06938508	     12.13079544	     90.00000001	      0.00000000	      0.00000000
      0.26000000	      5.03324902	      5.10929285	     -7.50823264	     -0.99660885	      1.00515164	     -0.26114925	     -4.88947343	    -11.30751821	      5.63909247	     57.38951163	      8.34052834	      1.00163593	    -26.85625930	    -10.03132722	     -8.47973616	     14.15498459	      0.16792302	     -5.61841144	     19.50039401	     11.01263594	      0.34034608	     -2.88515570	    -11.00848402	     -8.47973616	    -17.25063506	    -10.62399796	      5.99381792	     12.12137659	    -14.66528455	     -2.50190898	     36.37931438	     90.00000001	      0.00000000	      0.00000000	     -6.09049745	     -9.26603568	    -26.11908085	     12.58837999	     90.00000001	      0.00000000	      0.00000000
      0.27000000	      5.10431276	      4.84280332	     -7.43629550	     -0.98298539	      1.00756698	     -0.26174736	     -2.87836164	    -10.99843434	      5.87268562	     60.11328355	      8.12933417	      1.04917472	    -27.69324675	    -11.83651115	     -8.42625088	     13.06366179	      0.05166042	     -5.99583361	     19.40080867	     10.97245682	      0.33860799	     -1.82491239	     -9.93505933	     -8.42625088	    -17.35134669	    -10.24197910	      5.69609348	     11.75314060	    -14.18831353	     -2.69777912	     34.88447677	     90.00000001	      0.00000000	      0.00000000	     -4.99337321	     -9.27132160	    -26.49031464	     12.64878984	     90.00000001	      0.00000000	      0.00000000
      0.28000000	      5.11112012	      4.57772678	     -7.40431184	     -0.96953128	      1.00985415	     -0.26218125	     -0.78594577	    -10.68069327	      6.03092132	     62.61560728	      7.89965760	      1.09284851	    -27.48176578	    -13.06515265	     -8.37604331	     11.95554499	     -0.11557945	     -6.33403791	     19.11294076	     10.99481921	      0.33358375	     -0.80475484	     -8.93095491	     -8.37604331	    -17.37724866	     -9.86487517	      5.45080545	     11.24973144	    -13.75419697	     -2.86605925	     33.66727638	     90.00000001	      0.00000000	      0.00000000	     -3.89985185	     -9.28366105	    -26.76534056	     12.84227928	     90.00000001	      0.00000000	      0.00000000
